<svg id="Layer_1" data-name="Layer 1" xmlns="http://www.w3.org/2000/svg" viewBox="0 0 2124.27 655"><defs><style>.cls-1{fill:#e62b1e;}.cls-2,.cls-3{fill:#fff;}.cls-3{font-size:327.64px;font-family:Helvetica;}</style></defs><title>tedxsfu logo</title><path class="cls-1" d="M101.62,531.26l-17.7-25.52h16.87l9.48,14.07,9.38-14.07H136L118.29,531l19.9,28.65H121.31l-11.25-17-11.25,17H82.25Z"/><path class="cls-2" d="M208.29,527.72H155.68V516.58h52.61Zm0,22.29H155.68V538.87h52.61Z"/><path class="cls-2" d="M248.59,497.41H233.8V485.22h14.79Zm-14.79,8.33h14.79V559.6H233.8Z"/><path class="cls-2" d="M258.18,505.74h14.06v7.5h.31a19.22,19.22,0,0,1,16.46-9c15.73,0,19.69,8.86,19.69,22.19V559.6H293.91V529.18c0-8.85-2.61-13.23-9.48-13.23-8,0-11.46,4.48-11.46,15.42V559.6H258.18Z"/><path class="cls-2" d="M356.3,552.72h-.21c-3.44,5.84-9.48,8.34-16.36,8.34-16.25,0-24.16-14-24.16-28.86,0-14.48,8-27.92,23.85-27.92,6.35,0,12.61,2.71,16,8h.11V485.22h14.79V559.6H356.3Zm-12.92-37.29c-9.69,0-13,8.33-13,17.19,0,8.44,3.85,17.29,13,17.29,9.79,0,12.71-8.54,12.71-17.4S353,515.43,343.38,515.43Z"/><path class="cls-2" d="M391.6,536.26c.42,9.38,5,13.65,13.23,13.65,5.94,0,10.73-3.65,11.67-7h13c-4.17,12.71-13,18.13-25.21,18.13-17,0-27.5-11.67-27.5-28.34,0-16.14,11.15-28.44,27.5-28.44,18.34,0,27.19,15.42,26.15,32Zm24.07-9.37c-1.36-7.5-4.59-11.46-11.77-11.46-9.38,0-12.09,7.29-12.3,11.46Z"/><path class="cls-2" d="M437.12,505.74h14.06v6.88h.21c3.54-5.73,9.38-8.34,16-8.34,16.88,0,24.48,13.65,24.48,29,0,14.38-7.91,27.82-23.64,27.82-6.46,0-12.61-2.82-16.15-8.13h-.21v25.63H437.12Zm40,27.09c0-8.55-3.44-17.4-12.92-17.4-9.68,0-12.81,8.65-12.81,17.4s3.34,17.08,12.92,17.08S477.12,541.58,477.12,532.83Z"/><path class="cls-2" d="M510.87,536.26c.41,9.38,5,13.65,13.23,13.65,5.93,0,10.73-3.65,11.66-7h13c-4.16,12.71-13,18.13-25.21,18.13-17,0-27.49-11.67-27.49-28.34,0-16.14,11.14-28.44,27.49-28.44,18.34,0,27.19,15.42,26.15,32Zm24.06-9.37c-1.36-7.5-4.58-11.46-11.77-11.46-9.38,0-12.09,7.29-12.29,11.46Z"/><path class="cls-2" d="M556.38,505.74h14.07v7.5h.31a19.22,19.22,0,0,1,16.46-9c15.73,0,19.68,8.86,19.68,22.19V559.6H592.11V529.18c0-8.85-2.6-13.23-9.48-13.23-8,0-11.45,4.48-11.45,15.42V559.6h-14.8Z"/><path class="cls-2" d="M654.5,552.72h-.2c-3.44,5.84-9.48,8.34-16.36,8.34-16.25,0-24.17-14-24.17-28.86,0-14.48,8-27.92,23.86-27.92,6.35,0,12.6,2.71,16,8h.1V485.22h14.8V559.6H654.5Zm-12.91-37.29c-9.69,0-13,8.33-13,17.19,0,8.44,3.85,17.29,13,17.29,9.79,0,12.71-8.54,12.71-17.4S651.17,515.43,641.59,515.43Z"/><path class="cls-2" d="M689.81,536.26c.42,9.38,5,13.65,13.23,13.65,5.94,0,10.73-3.65,11.67-7h13c-4.17,12.71-13,18.13-25.21,18.13-17,0-27.5-11.67-27.5-28.34,0-16.14,11.14-28.44,27.5-28.44,18.33,0,27.19,15.42,26.15,32Zm24.06-9.37c-1.35-7.5-4.58-11.46-11.77-11.46-9.37,0-12.08,7.29-12.29,11.46Z"/><path class="cls-2" d="M735.33,505.74h14.06v7.5h.31a19.22,19.22,0,0,1,16.46-9c15.73,0,19.69,8.86,19.69,22.19V559.6H771.06V529.18c0-8.85-2.61-13.23-9.48-13.23-8,0-11.46,4.48-11.46,15.42V559.6H735.33Z"/><path class="cls-2" d="M813.76,505.74h10.83v9.9H813.76v26.67c0,5,1.25,6.25,6.25,6.25a22.9,22.9,0,0,0,4.58-.42V559.7a56.28,56.28,0,0,1-8.64.52c-9.06,0-17-2.08-17-12.81V515.64h-9v-9.9h9V489.6h14.79Z"/><path class="cls-2" d="M830,485.22H844.8V559.6H830Z"/><path class="cls-2" d="M880.94,566.37c-3.23,8.65-8.33,12.19-18.54,12.19a86,86,0,0,1-9.06-.53V565.85a79.26,79.26,0,0,0,8.65.52c5.1-.52,6.77-5.84,5.1-10.11l-19-50.52H864l12.19,36.88h.21l11.77-36.88h15.31Z"/><path class="cls-2" d="M959.38,504.28c17,0,27.91,11.26,27.91,28.44s-10.93,28.34-27.91,28.34-27.82-11.25-27.82-28.34S942.5,504.28,959.38,504.28Zm0,45.63c10.1,0,13.12-8.65,13.12-17.19s-3-17.29-13.12-17.29-13,8.65-13,17.29S949.38,549.91,959.38,549.91Z"/><path class="cls-2" d="M992.7,505.74h14.07v10h.21a19,19,0,0,1,17.18-11.46,10.71,10.71,0,0,1,3.23.53v13.75a26.39,26.39,0,0,0-5.31-.52c-10.83,0-14.58,7.81-14.58,17.29V559.6H992.7Z"/><path class="cls-2" d="M1082.91,556.16c0,8.85-3.12,23.85-27.92,23.85-10.62,0-23-5-23.75-17.29h14.69c1.36,5.52,5.83,7.4,11,7.4,8.23,0,12-5.63,11.88-13.33V549.7h-.21c-3.23,5.63-9.69,8.34-16.15,8.34-16.14,0-23-12.3-23-27.09,0-14,8-26.67,23.13-26.67,7.08,0,12.5,2.4,16,8.65h.21v-7.19h14.06ZM1068.85,532c0-8.75-3-16.56-12.61-16.56-8.33,0-12,7.29-12,15.31,0,7.71,2.92,16.15,12,16.15C1064.68,546.89,1068.85,539.7,1068.85,532Z"/><path class="cls-2" d="M1090,522.31c.83-13.86,13.23-18,25.31-18,10.73,0,23.65,2.4,23.65,15.32v28c0,4.89.52,9.79,1.87,12h-15a22.39,22.39,0,0,1-1-5.21c-4.69,4.9-11.56,6.67-18.12,6.67-10.21,0-18.34-5.11-18.34-16.15,0-12.19,9.17-15.1,18.34-16.35s17.5-1,17.5-7.09c0-6.35-4.38-7.29-9.59-7.29-5.62,0-9.27,2.29-9.79,8.13Zm34.17,10.93c-2.5,2.19-7.71,2.3-12.3,3.13s-8.75,2.5-8.75,7.92,4.28,6.87,9.07,6.87c11.56,0,12-9.17,12-12.4Z"/><path class="cls-2" d="M1148.32,505.74h14.06v7.5h.31a19.22,19.22,0,0,1,16.46-9c15.73,0,19.69,8.86,19.69,22.19V559.6h-14.79V529.18c0-8.85-2.61-13.23-9.48-13.23-8,0-11.46,4.48-11.46,15.42V559.6h-14.79Z"/><path class="cls-2" d="M1221.13,497.41h-14.8V485.22h14.8Zm-14.8,8.33h14.8V559.6h-14.8Z"/><path class="cls-2" d="M1227.37,548.45l28-31.56h-25.94V505.74h45.41v11.15l-28,31.56h30V559.6h-49.48Z"/><path class="cls-2" d="M1294.87,536.26c.42,9.38,5,13.65,13.23,13.65,5.94,0,10.73-3.65,11.67-7h13c-4.17,12.71-13,18.13-25.21,18.13-17,0-27.5-11.67-27.5-28.34,0-16.14,11.15-28.44,27.5-28.44,18.33,0,27.19,15.42,26.15,32Zm24.06-9.37c-1.35-7.5-4.58-11.46-11.77-11.46-9.37,0-12.08,7.29-12.29,11.46Z"/><path class="cls-2" d="M1378.83,552.72h-.21c-3.44,5.84-9.48,8.34-16.35,8.34-16.26,0-24.17-14-24.17-28.86,0-14.48,8-27.92,23.85-27.92,6.36,0,12.61,2.71,16,8h.11V485.22h14.79V559.6h-14.06Zm-12.92-37.29c-9.69,0-13,8.33-13,17.19,0,8.44,3.85,17.29,13,17.29,9.79,0,12.71-8.54,12.71-17.4S1375.49,515.43,1365.91,515.43Z"/><path class="cls-2" d="M1446.84,499h-22.29V485.22h60.94V499H1463.2V559.6h-16.36Z"/><path class="cls-2" d="M1491.94,485.22h55.63V499H1508.3v15.94h36v12.71h-36v18.23h40.1V559.6h-56.46Z"/><path class="cls-2" d="M1555.27,485.22h32.08c19.28,0,33.75,12.09,33.75,36.77,0,21.57-11,37.61-33.75,37.61h-32.08Zm16.36,60.63h14.58c9.48,0,18.54-5.84,18.54-22.29,0-15-5.21-24.59-21.46-24.59h-11.66Z"/><path class="cls-2" d="M1667.87,536.26c.42,9.38,5,13.65,13.23,13.65,5.94,0,10.73-3.65,11.66-7h13c-4.17,12.71-13,18.13-25.21,18.13-17,0-27.5-11.67-27.5-28.34,0-16.14,11.14-28.44,27.5-28.44,18.33,0,27.18,15.42,26.14,32Zm24.06-9.37c-1.35-7.5-4.58-11.46-11.77-11.46-9.37,0-12.08,7.29-12.29,11.46Z"/><path class="cls-2" d="M1741.1,559.6h-16.46l-18.44-53.86h15.52l11.35,36.77h.21l11.36-36.77h14.68Z"/><path class="cls-2" d="M1773.49,536.26c.41,9.38,5,13.65,13.23,13.65,5.93,0,10.73-3.65,11.66-7h13c-4.16,12.71-13,18.13-25.21,18.13-17,0-27.49-11.67-27.49-28.34,0-16.14,11.14-28.44,27.49-28.44,18.34,0,27.19,15.42,26.15,32Zm24.06-9.37c-1.35-7.5-4.58-11.46-11.77-11.46-9.38,0-12.08,7.29-12.29,11.46Z"/><path class="cls-2" d="M1819,505.74h14.07v7.5h.31a19.22,19.22,0,0,1,16.46-9c15.73,0,19.69,8.86,19.69,22.19V559.6h-14.79V529.18c0-8.85-2.61-13.23-9.48-13.23-8,0-11.46,4.48-11.46,15.42V559.6H1819Z"/><path class="cls-2" d="M1897.44,505.74h10.83v9.9h-10.83v26.67c0,5,1.25,6.25,6.25,6.25a22.9,22.9,0,0,0,4.58-.42V559.7a56.34,56.34,0,0,1-8.65.52c-9.06,0-17-2.08-17-12.81V515.64h-9v-9.9h9V489.6h14.79Z"/><path class="cls-1" d="M146.21,239.16H76.81V175.69h215v63.47H222.46V423.33H146.21Z"/><path class="cls-1" d="M303.68,175.69H512.42v63.47H380V270H512.42v59H380v30.86H512.46v63.47H303.68Z"/><path class="cls-1" d="M525.26,175.69H650.47c82.53,0,111.7,61,111.7,123.45,0,76-40.23,124.19-126.6,124.19H525.26Zm76.3,184.17H631.4c47.53,0,54.47-38.51,54.47-61.78,0-15.57-4.88-58.92-60-58.92H601.56Z"/><path class="cls-1" d="M871.81,327.9l-23.28-38.6-22.7,38.6h-55.9l53.07-78-51.1-74.65h55.92l20.71,36.9,21.3-36.9h55.91l-51.09,74.65,53.07,78Z"/><text class="cls-3" transform="translate(938.58 416.39)">SFU</text></svg>