<?xml version="1.0" encoding="utf-8"?>
<!-- Generator: Adobe Illustrator 19.2.1, SVG Export Plug-In . SVG Version: 6.00 Build 0)  -->
<svg version="1.1" id="layer" xmlns="http://www.w3.org/2000/svg" xmlns:xlink="http://www.w3.org/1999/xlink" x="0px" y="0px"
	 viewBox="0 0 652 652" style="enable-background:new 0 0 652 652;" xml:space="preserve">
<style type="text/css">
	.st0{fill:#58595B;}
	.st1{fill:#AE132A;}
	.st2{fill:#FFFFFF;}
</style>
<g>
	<path class="st0" d="M308.3,328.7c-2.9,3-7.4,4.5-14.3,4.5h-19.8v-68.6h19.8c6.8,0,11.4,1.5,14.4,4.4c3.3,3.2,4.5,6.7,4.5,14.3
		c0,4.9-0.9,8.7-3.8,11.6c-0.9,0.9-1.8,1.6-3.2,2.3c1.3,0.7,2.4,1.5,3.2,2.4c2.9,3,3.8,6.7,3.8,13.5
		C312.9,321,311.8,325.1,308.3,328.7 M292.4,277h-4.5v14.6h4.5c5.3,0,6.8-2.3,6.8-7.3C299.3,279.3,297.8,277,292.4,277 M292.2,303.2
		h-4.3v17.7h4.3c5.5,0,7-2.6,7-8.9C299.3,305.8,297.5,303.2,292.2,303.2"/>
	<polygon class="st0" points="325,333.2 325,264.7 356.6,264.7 356.6,277 338.7,277 338.7,292.5 354.1,292.5 354.1,304.8 
		338.7,304.8 338.7,320.9 356.6,320.9 356.6,333.2 	"/>
	<polygon class="st0" points="367.9,333.2 367.9,264.7 399.5,264.7 399.5,277 381.6,277 381.6,292.5 397,292.5 397,304.8 
		381.6,304.8 381.6,320.9 399.5,320.9 399.5,333.2 	"/>
	<path class="st0" d="M445.1,326.6c-3.1,3.6-7.3,6.6-15,6.6h-19.4v-68.6h19.4c7.7,0,11.9,3.1,15,6.6c4.8,5.5,5.1,14.9,5.1,27.5
		C450.2,311.5,449.9,321.1,445.1,326.6 M434.9,280c-0.9-1.7-2.6-3-5.1-3h-5.4v43.9h5.4c2.5,0,4.2-1.3,5.1-3
		c1.6-3.2,1.6-11.5,1.6-19.1C436.6,291.2,436.6,283.1,434.9,280"/>
	<rect x="461.8" y="264.7" class="st0" width="13.7" height="68.6"/>
	<polygon class="st0" points="488.5,333.2 488.5,264.7 520.1,264.7 520.1,277 502.2,277 502.2,292.5 517.6,292.5 517.6,304.8 
		502.2,304.8 502.2,320.9 520.1,320.9 520.1,333.2 	"/>
	<path class="st0" d="M288.6,375.5c-1.3,1.3-3.6,2.2-6.5,2.2c-3,0-5.2-0.8-6.5-2.2c-1.5-1.5-2-3.6-2-6.7h6c0,1.2,0.1,2.1,0.6,2.7
		c0.3,0.4,0.9,0.7,1.9,0.7c0.9,0,1.5-0.3,1.9-0.8c0.4-0.5,0.6-1.3,0.6-2.5c0-2.9-0.5-3.4-2.6-4.3l-3.8-1.6c-3-1.3-4.3-2.9-4.3-7.6
		c0-2.8,0.9-5.1,2.7-6.7c1.4-1.2,3.3-1.9,5.5-1.9c2.7,0,4.6,0.7,5.9,1.9c1.6,1.5,2.3,3.9,2.3,7h-6c0-1.1,0-2-0.5-2.7
		c-0.3-0.5-0.8-0.8-1.7-0.8c-0.8,0-1.4,0.3-1.7,0.8c-0.4,0.5-0.5,1.1-0.5,2.2c0,1.9,0.3,2.4,2.1,3.2l3.8,1.5
		c3.8,1.6,4.9,3.3,4.9,8.7C290.5,371.9,290.2,374,288.6,375.5"/>
	<path class="st0" d="M309.7,375.6c-1.5,1.4-3.3,2.2-5.8,2.2c-3.3,0-5.2-1.3-6.6-3c-2.1-2.6-2.2-6.5-2.2-12.3
		c0-5.8,0.1-9.7,2.2-12.3c1.4-1.7,3.3-3,6.6-3c2.5,0,4.3,0.7,5.8,2.2c1.6,1.5,2.6,3.8,2.7,6.7h-6c0-0.8-0.1-1.7-0.5-2.3
		c-0.3-0.7-0.9-1.1-2-1.1c-1.1,0-1.7,0.5-2,1.2c-0.7,1.4-0.8,5.2-0.8,8.8c0,3.6,0.1,7.4,0.8,8.8c0.3,0.7,0.9,1.2,2,1.2
		c1.1,0,1.7-0.5,2-1.2c0.3-0.6,0.4-1.5,0.5-2.3h6C312.2,371.7,311.2,374.1,309.7,375.6"/>
	<polygon class="st0" points="328.3,377.4 328.3,364.8 323.3,364.8 323.3,377.4 317.3,377.4 317.3,347.4 323.3,347.4 323.3,359.4 
		328.3,359.4 328.3,347.4 334.2,347.4 334.2,377.4 	"/>
	<path class="st0" d="M354.9,374.7c-1.4,1.7-3.3,3-6.6,3s-5.2-1.4-6.6-3c-2.1-2.6-2.2-6.5-2.2-12.3c0-5.8,0.1-9.8,2.2-12.3
		c1.4-1.7,3.3-3,6.6-3s5.2,1.3,6.6,3c2.1,2.6,2.2,6.5,2.2,12.3C357.2,368.2,357.1,372.1,354.9,374.7 M350.4,353.6
		c-0.3-0.7-0.9-1.2-2-1.2c-1.1,0-1.7,0.5-2,1.2c-0.7,1.4-0.8,5.1-0.8,8.8c0,3.6,0.1,7.4,0.8,8.8c0.3,0.7,0.9,1.2,2,1.2
		c1.1,0,1.7-0.5,2-1.2c0.7-1.4,0.8-5.1,0.8-8.8C351.2,358.8,351.1,355,350.4,353.6"/>
	<path class="st0" d="M377.2,374.7c-1.4,1.7-3.3,3-6.6,3c-3.3,0-5.2-1.4-6.6-3c-2.1-2.6-2.2-6.5-2.2-12.3c0-5.8,0.1-9.8,2.2-12.3
		c1.4-1.7,3.3-3,6.6-3c3.3,0,5.2,1.3,6.6,3c2.1,2.6,2.2,6.5,2.2,12.3C379.4,368.2,379.3,372.1,377.2,374.7 M372.6,353.6
		c-0.3-0.7-0.9-1.2-2-1.2c-1.1,0-1.7,0.5-2,1.2c-0.7,1.4-0.8,5.1-0.8,8.8c0,3.6,0.1,7.4,0.8,8.8c0.3,0.7,0.9,1.2,2,1.2
		c1.1,0,1.7-0.5,2-1.2c0.7-1.4,0.8-5.1,0.8-8.8C373.4,358.8,373.3,355,372.6,353.6"/>
	<polygon class="st0" points="384.7,377.4 384.7,347.4 390.7,347.4 390.7,372 398.5,372 398.5,377.4 	"/>
	<path class="st0" d="M426.9,374.7c-1.4,1.7-3.3,3-6.6,3s-5.2-1.4-6.6-3c-2.1-2.6-2.2-6.5-2.2-12.3c0-5.8,0.1-9.8,2.2-12.3
		c1.4-1.7,3.3-3,6.6-3s5.2,1.3,6.6,3c2.1,2.6,2.2,6.5,2.2,12.3C429.2,368.2,429.1,372.1,426.9,374.7 M422.4,353.6
		c-0.3-0.7-0.9-1.2-2-1.2s-1.7,0.5-2,1.2c-0.7,1.4-0.8,5.1-0.8,8.8c0,3.6,0.1,7.4,0.8,8.8c0.3,0.7,0.9,1.2,2,1.2s1.7-0.5,2-1.2
		c0.7-1.4,0.8-5.1,0.8-8.8C423.2,358.8,423.1,355,422.4,353.6"/>
	<polygon class="st0" points="440.5,352.8 440.5,359.6 447.2,359.6 447.2,365 440.5,365 440.5,377.4 434.5,377.4 434.5,347.4 
		448.3,347.4 448.3,352.8 	"/>
	<path class="st0" d="M477.2,375.4c-1.3,1.3-3.3,2-6.2,2h-8.7v-30.1h8.7c3,0,5,0.7,6.3,1.9c1.4,1.4,2,3,2,6.2c0,2.2-0.4,3.8-1.6,5.1
		c-0.4,0.4-0.8,0.7-1.4,1c0.5,0.3,1.1,0.7,1.4,1.1c1.3,1.3,1.6,3,1.6,5.9C479.2,372.1,478.7,373.9,477.2,375.4 M470.2,352.8h-2v6.4
		h2c2.3,0,3-1,3-3.2C473.2,353.8,472.5,352.8,470.2,352.8 M470.1,364.2h-1.9v7.8h1.9c2.4,0,3.1-1.1,3.1-3.9S472.4,364.2,470.1,364.2
		"/>
	<path class="st0" d="M499.2,375.3c-1.6,1.6-3.7,2.5-6.3,2.5c-2.5,0-4.6-0.8-6.2-2.5c-1.4-1.5-2.2-3.5-2.2-5.9v-22h6v22.3
		c0,1.9,1.1,2.7,2.5,2.7c1.4,0,2.5-0.8,2.5-2.7v-22.3h6v22C501.5,371.8,500.7,373.8,499.2,375.3"/>
	<path class="st0" d="M521.4,375.5c-1.4,1.3-3.6,2.2-6.5,2.2c-3,0-5.2-0.8-6.5-2.2c-1.5-1.5-2-3.6-2-6.7h6c0,1.2,0.1,2.1,0.6,2.7
		c0.3,0.4,0.9,0.7,1.9,0.7c0.9,0,1.5-0.3,1.9-0.8c0.4-0.5,0.6-1.3,0.6-2.5c0-2.9-0.5-3.4-2.6-4.3l-3.8-1.6c-3-1.3-4.3-2.9-4.3-7.6
		c0-2.8,0.9-5.1,2.7-6.7c1.4-1.2,3.3-1.9,5.5-1.9c2.7,0,4.6,0.7,5.9,1.9c1.6,1.5,2.3,3.9,2.3,7h-6c0-1.1,0-2-0.5-2.7
		c-0.3-0.5-0.8-0.8-1.7-0.8c-0.8,0-1.4,0.3-1.7,0.8c-0.4,0.5-0.5,1.1-0.5,2.2c0,1.9,0.3,2.4,2.1,3.2l3.8,1.5
		c3.8,1.6,4.9,3.3,4.9,8.7C523.3,371.9,522.9,374,521.4,375.5"/>
	<rect x="528.5" y="347.4" class="st0" width="6" height="30.1"/>
	<polygon class="st0" points="552.8,377.4 546.4,362.7 546.4,377.4 540.4,377.4 540.4,347.4 545.6,347.4 551.9,362 551.9,347.4 
		557.9,347.4 557.9,377.4 	"/>
	<polygon class="st0" points="563.8,377.4 563.8,347.4 577.7,347.4 577.7,352.8 569.8,352.8 569.8,359.6 576.6,359.6 576.6,365 
		569.8,365 569.8,372 577.7,372 577.7,377.4 	"/>
	<path class="st0" d="M597.1,375.5c-1.4,1.3-3.6,2.2-6.5,2.2c-3,0-5.2-0.8-6.5-2.2c-1.5-1.5-2-3.6-2-6.7h6c0,1.2,0.1,2.1,0.6,2.7
		c0.3,0.4,0.9,0.7,1.9,0.7c0.9,0,1.5-0.3,1.9-0.8c0.4-0.5,0.6-1.3,0.6-2.5c0-2.9-0.5-3.4-2.6-4.3l-3.8-1.6c-3-1.3-4.3-2.9-4.3-7.6
		c0-2.8,0.9-5.1,2.7-6.7c1.4-1.2,3.3-1.9,5.5-1.9c2.7,0,4.6,0.7,5.9,1.9c1.6,1.5,2.3,3.9,2.3,7h-6c0-1.1,0-2-0.5-2.7
		c-0.3-0.5-0.8-0.8-1.7-0.8c-0.8,0-1.4,0.3-1.7,0.8c-0.4,0.5-0.5,1.1-0.5,2.2c0,1.9,0.3,2.4,2.1,3.2l3.8,1.5
		c3.8,1.6,4.9,3.3,4.9,8.7C599,371.9,598.6,374,597.1,375.5"/>
	<path class="st0" d="M618.6,375.5c-1.4,1.3-3.6,2.2-6.5,2.2c-3,0-5.2-0.8-6.5-2.2c-1.5-1.5-2-3.6-2-6.7h6c0,1.2,0.1,2.1,0.6,2.7
		c0.3,0.4,0.9,0.7,1.9,0.7c0.9,0,1.5-0.3,1.9-0.8c0.4-0.5,0.6-1.3,0.6-2.5c0-2.9-0.5-3.4-2.6-4.3l-3.8-1.6c-3-1.3-4.3-2.9-4.3-7.6
		c0-2.8,0.9-5.1,2.7-6.7c1.4-1.2,3.3-1.9,5.5-1.9c2.7,0,4.6,0.7,5.9,1.9c1.6,1.5,2.3,3.9,2.3,7h-6c0-1.1,0-2-0.5-2.7
		c-0.3-0.5-0.8-0.8-1.7-0.8c-0.8,0-1.4,0.3-1.7,0.8c-0.4,0.5-0.5,1.1-0.5,2.2c0,1.9,0.3,2.4,2.1,3.2l3.8,1.5
		c3.8,1.6,4.9,3.3,4.9,8.7C620.5,371.9,620.1,374,618.6,375.5"/>
	<polyline class="st1" points="20.5,377.4 20.5,264.7 246,264.7 246,377.4 	"/>
	<path class="st2" d="M205.5,320.8c-1.8,0.2-3.1,0.3-4,0.3s-2.3-0.1-4.1-0.3c0.3,2.7,0.3,3.7,0.4,5.9v3.5v3.6l0.1,16.8
		c0,6.7,0.2,8.1,1.8,10.8c1,1.6,2.4,3.1,4.2,4.3c3.3,2.3,6.9,3.2,13.5,3.2c6.1,0,9.9-0.9,13.3-3.3c4.9-3.5,6-6.6,6-18l-0.1-11.1
		c0-0.9,0.1-3.3,0.1-7.2c0-3,0.1-5.1,0.1-6.2c0.1-0.5,0.1-1.2,0.2-2.2c-1.6,0.1-2.8,0.3-3.6,0.3c-0.8,0-2-0.1-3.5-0.3
		c0.3,2.5,0.4,3.5,0.5,5.6c0.2,2.8,0.3,6.2,0.3,9.9v11c0,7.8-0.2,9.4-1.7,11.6c-0.6,0.8-1.5,1.6-2.8,2.4c-2.4,1.5-5,2.1-8.5,2.1
		c-5,0-9.7-1.8-11.4-4.4c-1.4-2.1-1.5-3-1.6-10.3v-14.4c0-0.8,0.1-2.1,0.1-3.9c0-1.8,0.1-2.9,0.1-3.3
		C205,324.6,205.1,323.5,205.5,320.8 M186.3,327.6c-0.1-1.5-0.2-2.6-0.2-3.4c0-1,0.1-1.8,0.4-3.5c-2.8,0.3-3.7,0.3-5.4,0.3h-7.2
		l-8.3-0.1l-4.8-0.1c0.3,5.6,0.4,7.8,0.5,11.4v3.8v15.5c0,5.1-0.1,8.4-0.1,10c-0.1,1.4-0.3,3.7-0.6,6.6c1.6-0.1,2.8-0.2,3.7-0.2
		c1,0,2.5,0.1,4.4,0.3c-0.5-6.1-0.5-7.2-0.5-15.7v-6h7.4c3,0,4.8,0.1,9.2,0.7c-0.1-1.5-0.2-2.6-0.2-3.4c0-0.9,0.1-1.8,0.4-3.6
		c-3.8,0.6-5.2,0.6-8.4,0.6h-8.3v-3v-8.2l0.1-2.8h7.5c1.9,0,4.9,0.1,7.5,0.4C184,327.4,185,327.4,186.3,327.6 M146.4,328.9
		c0.4-1.5,0.5-2,1-3.5c0.4-1.2,0.6-1.5,1.3-2.8c-2.1-0.8-3-1.1-4.6-1.4c-2.3-0.5-4.4-0.8-6.8-0.8c-5,0-8.4,1.2-11.1,3.9
		c-2.4,2.4-3.8,5.8-3.8,9.4c0,4.2,1.5,7.2,4.9,9.5c1.7,1.2,3,1.9,6.6,3.5c3.7,1.7,4.7,2.2,6.3,3.3c2.5,1.7,3.7,3.7,3.7,6
		c0,4.8-3.9,8-9.5,8c-2.5,0-5-0.6-7.3-1.8c-1.6-0.8-2.6-1.5-4.9-3.4c-0.6,3.3-0.8,4.3-2.1,7.1c3.3,1.6,4.7,2,8.1,2.5
		c1.8,0.3,3.2,0.4,4.7,0.4c6.3,0,11.1-2,14.1-6c2-2.7,3-5.6,3-8.6c0-2.3-0.6-4.5-1.6-6.1c-1.3-2.1-3.4-3.7-8.1-6
		c-6.6-3.3-7.6-3.8-9.2-5c-1.8-1.4-2.8-3.3-2.8-5.4c0-4.1,2.9-6.8,7.3-6.8c1.2,0,3,0.3,4.5,0.8C142.5,326.5,143.7,327.1,146.4,328.9
		"/>
</g>
</svg>
