<svg width="60" height="48" viewBox="0 0 60 48" fill="none" xmlns="http://www.w3.org/2000/svg">
<path d="M3.05 1.5H56.95C57.806 1.5 58.5 2.19396 58.5 3.05V44.95C58.5 45.806 57.806 46.5 56.95 46.5H3.05C2.19396 46.5 1.5 45.806 1.5 44.95V3.05C1.5 2.19396 2.19396 1.5 3.05 1.5Z" stroke="black" stroke-width="3"/>
<mask id="path-2-inside-1_5_133" fill="white">
<path fill-rule="evenodd" clip-rule="evenodd" d="M22.3715 24L1.07678 5.46953C-1.09291 3.58149 0.23597 3.8147e-06 3.10619 3.8147e-06L56.8938 7.20549e-06C59.764 7.45762e-06 61.0929 3.5815 58.9232 5.46954L37.6285 24L58.9232 42.5305C61.0929 44.4185 59.764 48 56.8938 48L3.10619 48C0.23597 48 -1.09291 44.4185 1.07678 42.5305L22.3715 24Z"/>
</mask>
<path d="M22.3715 24L24.3408 26.2631L26.9415 24L24.3408 21.7369L22.3715 24ZM1.07678 5.46953L-0.892566 7.73264L-0.892566 7.73264L1.07678 5.46953ZM3.10619 3.8147e-06L3.10619 -3H3.10619V3.8147e-06ZM56.8938 7.20549e-06L56.8938 -2.99999L56.8938 -2.99999L56.8938 7.20549e-06ZM58.9232 5.46954L56.9539 3.20642L56.9539 3.20642L58.9232 5.46954ZM37.6285 24L35.6592 21.7369L33.0585 24L35.6592 26.2631L37.6285 24ZM58.9232 42.5305L56.9539 44.7936L56.9539 44.7936L58.9232 42.5305ZM56.8938 48L56.8938 45L56.8938 45L56.8938 48ZM3.10619 48L3.10619 51L3.10619 51L3.10619 48ZM1.07678 42.5305L3.04612 44.7936L3.04612 44.7936L1.07678 42.5305ZM24.3408 21.7369L3.04612 3.20641L-0.892566 7.73264L20.4021 26.2631L24.3408 21.7369ZM3.04612 3.20642C3.01167 3.17644 3.00198 3.1593 3.00178 3.15897C3.00108 3.15778 3.00146 3.15861 3.00133 3.15802C3.00019 3.153 2.99579 3.11985 3.01415 3.07035C3.03253 3.02082 3.0563 3.00162 3.05599 3.00185C3.05568 3.00209 3.05447 3.00292 3.05257 3.00391C3.05168 3.00438 3.05085 3.00476 3.05016 3.00505C3.04946 3.00535 3.04912 3.00546 3.04923 3.00542C3.04934 3.00538 3.05017 3.00511 3.05185 3.00471C3.05352 3.0043 3.05633 3.00368 3.06042 3.00303C3.0683 3.00177 3.08318 3 3.10619 3V-3C-2.5696 -3 -5.13124 4.04418 -0.892566 7.73264L3.04612 3.20642ZM3.10619 3L56.8938 3.00001L56.8938 -2.99999L3.10619 -3L3.10619 3ZM56.8938 3.00001C56.9168 3.00001 56.9317 3.00177 56.9396 3.00303C56.9437 3.00368 56.9465 3.0043 56.9481 3.00471C56.9498 3.00512 56.9506 3.00539 56.9508 3.00542C56.9509 3.00546 56.9505 3.00535 56.9498 3.00506C56.9491 3.00476 56.9483 3.00438 56.9474 3.00392C56.9455 3.00293 56.9443 3.00209 56.944 3.00186C56.9437 3.00163 56.9675 3.02083 56.9858 3.07036C57.0042 3.11985 56.9998 3.153 56.9987 3.15803C56.9985 3.15862 56.9989 3.15779 56.9982 3.15897C56.998 3.15931 56.9883 3.17645 56.9539 3.20642L60.8926 7.73265C65.1312 4.04419 62.5696 -2.99999 56.8938 -2.99999L56.8938 3.00001ZM56.9539 3.20642L35.6592 21.7369L39.5979 26.2631L60.8926 7.73265L56.9539 3.20642ZM60.8926 40.2674L39.5979 21.7369L35.6592 26.2631L56.9539 44.7936L60.8926 40.2674ZM56.8938 51C62.5696 51 65.1312 43.9558 60.8926 40.2674L56.9539 44.7936C56.9883 44.8236 56.998 44.8407 56.9982 44.841C56.9989 44.8422 56.9985 44.8414 56.9987 44.842C56.9998 44.847 57.0042 44.8802 56.9858 44.9297C56.9675 44.9792 56.9437 44.9984 56.944 44.9982C56.9443 44.9979 56.9455 44.9971 56.9474 44.9961C56.9483 44.9956 56.9491 44.9952 56.9498 44.995C56.9505 44.9947 56.9509 44.9945 56.9508 44.9946C56.9506 44.9946 56.9498 44.9949 56.9481 44.9953C56.9465 44.9957 56.9437 44.9963 56.9396 44.997C56.9317 44.9982 56.9168 45 56.8938 45V51ZM3.10619 51L56.8938 51L56.8938 45L3.10619 45L3.10619 51ZM-0.892566 40.2674C-5.13124 43.9558 -2.5696 51 3.10619 51V45C3.08318 45 3.0683 44.9982 3.06042 44.997C3.05633 44.9963 3.05352 44.9957 3.05185 44.9953C3.05017 44.9949 3.04934 44.9946 3.04924 44.9946C3.04912 44.9946 3.04946 44.9947 3.05016 44.995C3.05085 44.9953 3.05168 44.9956 3.05257 44.9961C3.05447 44.9971 3.05568 44.9979 3.05599 44.9982C3.0563 44.9984 3.03253 44.9792 3.01415 44.9297C2.99579 44.8802 3.00019 44.847 3.00133 44.842C3.00146 44.8414 3.00108 44.8422 3.00178 44.841C3.00198 44.8407 3.01167 44.8236 3.04612 44.7936L-0.892566 40.2674ZM20.4021 21.7369L-0.892566 40.2674L3.04612 44.7936L24.3408 26.2631L20.4021 21.7369Z" fill="black" mask="url(#path-2-inside-1_5_133)"/>
<path d="M28.9553 27.7408L2.06146 4.33797C0.926272 3.35014 1.63877 1.5 3.1062 1.5L56.8938 1.50001C58.3612 1.50001 59.0737 3.35015 57.9386 4.33798L31.0447 27.7408C30.4444 28.2632 29.5556 28.2632 28.9553 27.7408Z" stroke="black" stroke-width="3"/>
</svg>
