<svg width="48" height="48" viewBox="0 0 48 48" fill="none" xmlns="http://www.w3.org/2000/svg">
<path d="M23.976 0C10.728 0 0 10.752 0 24C0 37.248 10.728 48 23.976 48C37.248 48 48 37.248 48 24C48 10.752 37.248 0 23.976 0ZM40.608 14.4H33.528C32.76 11.4 31.656 8.52 30.216 5.856C34.632 7.368 38.304 10.44 40.608 14.4ZM24 4.896C25.992 7.776 27.552 10.968 28.584 14.4H19.416C20.448 10.968 22.008 7.776 24 4.896ZM5.424 28.8C5.04 27.264 4.8 25.656 4.8 24C4.8 22.344 5.04 20.736 5.424 19.2H13.536C13.344 20.784 13.2 22.368 13.2 24C13.2 25.632 13.344 27.216 13.536 28.8H5.424ZM7.392 33.6H14.472C15.24 36.6 16.344 39.48 17.784 42.144C13.368 40.632 9.696 37.584 7.392 33.6V33.6ZM14.472 14.4H7.392C9.696 10.416 13.368 7.368 17.784 5.856C16.344 8.52 15.24 11.4 14.472 14.4V14.4ZM24 43.104C22.008 40.224 20.448 37.032 19.416 33.6H28.584C27.552 37.032 25.992 40.224 24 43.104ZM29.616 28.8H18.384C18.168 27.216 18 25.632 18 24C18 22.368 18.168 20.76 18.384 19.2H29.616C29.832 20.76 30 22.368 30 24C30 25.632 29.832 27.216 29.616 28.8ZM30.216 42.144C31.656 39.48 32.76 36.6 33.528 33.6H40.608C38.304 37.56 34.632 40.632 30.216 42.144V42.144ZM34.464 28.8C34.656 27.216 34.8 25.632 34.8 24C34.8 22.368 34.656 20.784 34.464 19.2H42.576C42.96 20.736 43.2 22.344 43.2 24C43.2 25.656 42.96 27.264 42.576 28.8H34.464Z" fill="black"/>
</svg>
